P3
4 4
255
0 15 0 100 0 0 0 0 0 30 0 60
60 0 0 0 120 75 0 0 0 0 90 0
0 0 150 0 0 0 0 15 175 0 0 0
255 0 200 0 0 0 0 0 0 54 123 111
