P3
4 4
255
0 0 0 200 0 0 0 0 0 45 0 60 
0 100 0 0 120 25 0 0 30 0 0 0 
0 0 0 0 70 0 0 30 25 0 0 0 
80 0 130 0 0 0 0 0 0 50 90 80 
