P3
3 2
255
5   10   15   20  255  50      0   0 255
3    7   9    125 125  125     0   0   0
